<?xml version="1.0" encoding="us-ascii" standalone="no"?><svg xmlns="http://www.w3.org/2000/svg" xmlns:xlink="http://www.w3.org/1999/xlink" contentStyleType="text/css" height="128px" preserveAspectRatio="none" style="width:468px;height:128px;background:#FFFFFF;" version="1.1" viewBox="0 0 468 128" width="468px" zoomAndPan="magnify"><defs/><g><!--cluster core--><g id="cluster_core"><path d="M8.5,6 L45.5,6 A3.75,3.75 0 0 1 48,8.5 L55,28.2969 L458.5,28.2969 A2.5,2.5 0 0 1 461,30.7969 L461,118.8 A2.5,2.5 0 0 1 458.5,121.3 L8.5,121.3 A2.5,2.5 0 0 1 6,118.8 L6,8.5 A2.5,2.5 0 0 1 8.5,6 " fill="none" style="stroke:#000000;stroke-width:1.5;"/><line style="stroke:#000000;stroke-width:1.5;" x1="6" x2="55" y1="28.2969" y2="28.2969"/><text fill="#000000" font-family="sans-serif" font-size="14" font-weight="bold" lengthAdjust="spacing" textLength="36" x="10" y="20.9951">core</text></g><!--class Item--><g id="elem_Item"><rect codeLine="7" fill="#FFFFFF" height="64.2969" id="Item" rx="2.5" ry="2.5" style="stroke:#000000;stroke-width:0.5;" width="194" x="22" y="41"/><ellipse cx="99.75" cy="57" fill="#ADD1B2" rx="11" ry="11" style="stroke:#181818;stroke-width:1.0;"/><path d="M102.7188,62.6406 Q102.1406,62.9375 101.5,63.0781 Q100.8594,63.2344 100.1563,63.2344 Q97.6563,63.2344 96.3281,61.5938 Q95.0156,59.9375 95.0156,56.8125 Q95.0156,53.6875 96.3281,52.0313 Q97.6563,50.375 100.1563,50.375 Q100.8594,50.375 101.5,50.5313 Q102.1563,50.6875 102.7188,50.9844 L102.7188,53.7031 Q102.0938,53.125 101.5,52.8594 Q100.9063,52.5781 100.2813,52.5781 Q98.9375,52.5781 98.25,53.6563 Q97.5625,54.7188 97.5625,56.8125 Q97.5625,58.9063 98.25,59.9844 Q98.9375,61.0469 100.2813,61.0469 Q100.9063,61.0469 101.5,60.7813 Q102.0938,60.5 102.7188,59.9219 L102.7188,62.6406 Z " fill="#000000"/><text fill="#000000" font-family="sans-serif" font-size="14" lengthAdjust="spacing" textLength="30" x="120.25" y="61.8467">Item</text><line style="stroke:#000000;stroke-width:0.5;" x1="23" x2="215" y1="73" y2="73"/><text fill="#000000" font-family="sans-serif" font-size="14" lengthAdjust="spacing" textLength="182" x="28" y="89.9951">creationtime: java.util.Date</text><line style="stroke:#000000;stroke-width:0.5;" x1="23" x2="215" y1="97.2969" y2="97.2969"/></g><!--class Item2--><g id="elem_Item2"><rect codeLine="17" fill="#FFFFFF" height="64.2969" id="Item2" rx="2.5" ry="2.5" style="stroke:#000000;stroke-width:0.5;" width="194" x="251" y="41"/><ellipse cx="324.25" cy="57" fill="#ADD1B2" rx="11" ry="11" style="stroke:#181818;stroke-width:1.0;"/><path d="M327.2188,62.6406 Q326.6406,62.9375 326,63.0781 Q325.3594,63.2344 324.6563,63.2344 Q322.1563,63.2344 320.8281,61.5938 Q319.5156,59.9375 319.5156,56.8125 Q319.5156,53.6875 320.8281,52.0313 Q322.1563,50.375 324.6563,50.375 Q325.3594,50.375 326,50.5313 Q326.6563,50.6875 327.2188,50.9844 L327.2188,53.7031 Q326.5938,53.125 326,52.8594 Q325.4063,52.5781 324.7813,52.5781 Q323.4375,52.5781 322.75,53.6563 Q322.0625,54.7188 322.0625,56.8125 Q322.0625,58.9063 322.75,59.9844 Q323.4375,61.0469 324.7813,61.0469 Q325.4063,61.0469 326,60.7813 Q326.5938,60.5 327.2188,59.9219 L327.2188,62.6406 Z " fill="#000000"/><text fill="#000000" font-family="sans-serif" font-size="14" lengthAdjust="spacing" textLength="39" x="344.75" y="61.8467">Item2</text><line style="stroke:#000000;stroke-width:0.5;" x1="252" x2="444" y1="73" y2="73"/><text fill="#000000" font-family="sans-serif" font-size="14" lengthAdjust="spacing" textLength="182" x="257" y="89.9951">creationtime: java.util.Date</text><line style="stroke:#000000;stroke-width:0.5;" x1="252" x2="444" y1="97.2969" y2="97.2969"/></g><!--SRC=[nOwn3eCm34Htli9VmD2H3TgbNz3P2XPrIMBac7Qe-FT690ChKsyvwTcwkpHpN50nWFEO4dmRo1hGpPFA6iUhU55uFDceN4H7qa87dzzssglAvmYtPic64u4JfPfQ6kv6eO8TAg6nHED07RpmZUrgxDiRriOjXwM_hBoSdFa3]--></g></svg>