<?xml version="1.0" encoding="us-ascii" standalone="no"?><svg xmlns="http://www.w3.org/2000/svg" xmlns:xlink="http://www.w3.org/1999/xlink" contentStyleType="text/css" height="128px" preserveAspectRatio="none" style="width:257px;height:128px;background:#FFFFFF;" version="1.1" viewBox="0 0 257 128" width="257px" zoomAndPan="magnify"><defs/><g><!--cluster core--><g id="cluster_core"><path d="M8.5,6 L44.5,6 A3.75,3.75 0 0 1 47,8.5 L54,28.2969 L247.5,28.2969 A2.5,2.5 0 0 1 250,30.7969 L250,118.5 A2.5,2.5 0 0 1 247.5,121 L8.5,121 A2.5,2.5 0 0 1 6,118.5 L6,8.5 A2.5,2.5 0 0 1 8.5,6 " fill="none" style="stroke:#000000;stroke-width:1.5;"/><line style="stroke:#000000;stroke-width:1.5;" x1="6" x2="54" y1="28.2969" y2="28.2969"/><text fill="#000000" font-family="sans-serif" font-size="14" font-weight="bold" lengthAdjust="spacing" textLength="35" x="10" y="20.9951">core</text></g><!--class Item--><g id="elem_Item"><rect codeLine="7" fill="#FFFFFF" height="64.2969" id="Item" rx="2.5" ry="2.5" style="stroke:#000000;stroke-width:0.5;" width="211" x="22.5" y="41"/><ellipse cx="106.75" cy="57" fill="#ADD1B2" rx="11" ry="11" style="stroke:#181818;stroke-width:1.0;"/><path d="M109.0938,52.6719 C108.1563,52.2344 107.5625,52.0938 106.6875,52.0938 C104.0625,52.0938 102.0625,54.1719 102.0625,56.8906 L102.0625,58.0156 C102.0625,60.5938 104.1719,62.4844 107.0625,62.4844 C108.2813,62.4844 109.4375,62.1875 110.1875,61.6406 C110.7656,61.2344 111.0938,60.7813 111.0938,60.3906 C111.0938,59.9375 110.7031,59.5469 110.2344,59.5469 C110.0156,59.5469 109.8125,59.625 109.625,59.8125 C109.1719,60.2969 109.1719,60.2969 108.9844,60.3906 C108.5625,60.6563 107.875,60.7813 107.1094,60.7813 C105.0625,60.7813 103.7656,59.6875 103.7656,57.9844 L103.7656,56.8906 C103.7656,55.1094 105.0156,53.7969 106.75,53.7969 C107.3281,53.7969 107.9375,53.9531 108.4063,54.2031 C108.8906,54.4844 109.0625,54.7031 109.1563,55.1094 C109.2188,55.5156 109.25,55.6406 109.3906,55.7656 C109.5313,55.9063 109.7656,56.0156 109.9844,56.0156 C110.25,56.0156 110.5156,55.875 110.6875,55.6563 C110.7969,55.5 110.8281,55.3125 110.8281,54.8906 L110.8281,53.4688 C110.8281,53.0313 110.8125,52.9063 110.7188,52.75 C110.5625,52.4844 110.2813,52.3438 109.9844,52.3438 C109.6875,52.3438 109.4844,52.4375 109.2656,52.75 L109.0938,52.6719 Z " fill="#000000"/><text fill="#000000" font-family="sans-serif" font-size="14" lengthAdjust="spacing" textLength="34" x="127.25" y="61.8467">Item</text><line style="stroke:#000000;stroke-width:0.5;" x1="23.5" x2="232.5" y1="73" y2="73"/><text fill="#000000" font-family="sans-serif" font-size="14" lengthAdjust="spacing" textLength="199" x="28.5" y="89.9951">creationtime: java.util.Date</text><line style="stroke:#000000;stroke-width:0.5;" x1="23.5" x2="232.5" y1="97.2969" y2="97.2969"/></g><!--SRC=[JSqn3iCm20NGtQVW13b0jgPTSeBEo44fZMqYJDgXyjrZnHxAWlG-ukUDquwA4Np0dE7deCw4VbjLZhJS9OZ2yyL6BH5TI9jEePvTUbELxpyMjzU5Au4NfVwrDSn6iSE5IcWioJZI26_yu70OX-61lR6uSW80]--></g></svg>